<svg xmlns="http://www.w3.org/2000/svg" enable-background="new 0 0 256 256" viewBox="0 0 256 256" id="adobe-aftereffects-file">
  <path fill="#00005b" d="M222,70.4V220c0,12.7-10.3,23-23,23H57c-12.7,0-23-10.3-23-23V36c0-12.7,10.3-23,23-23h107.5
	c6.1,0,12,2.4,16.3,6.7l34.5,34.4C219.6,58.5,222,64.3,222,70.4z"></path>
  <path fill="#99f" d="M166.1,18c3.7,0,7.3,1.5,9.9,4.1L211.9,58c2.6,2.6,4.1,6.2,4.1,9.9V224c0,7.7-6.3,14-14,14H54
	c-7.7,0-14-6.3-14-14V32c0-7.7,6.3-14,14-14H166.1 M166.1,8H54C40.7,8,30,18.7,30,32v192c0,13.3,10.7,24,24,24h148
	c13.3,0,24-10.7,24-24V67.9c0-6.4-2.5-12.5-7-17L183,15C178.5,10.5,172.4,8,166.1,8L166.1,8z"></path>
  <path fill="#99f" d="M114.6 118H87.8l-6.9 19c-.1.7-.5 1-1.3 1H67c-.8 0-1.1-.4-.9-1.2l24.3-71.3c.7-2.2 1-4.4 1-6.7 0-.5.2-.7.8-.7h17.6c.5 0 .8.2.9.6l27.2 78.3c.2.7 0 1.1-.6 1.1h-14.1c-.5 0-1-.3-1.3-.7L114.6 118zM90.8 104h20.9c-.5-1.2-9.9-31.1-10.6-33.7H101L90.8 104zM176.4 112.6h-21.8c.1 5.1 1.5 9.1 4.3 12 2.8 2.9 6.9 4.4 12.5 4.4 4.7.1 9.5-.8 13.9-2.6.5-.3.7-.2.7.5v8.7c0 .6-.3 1.1-.7 1.4-4.5 2.1-10.4 3.1-17 3.1-9.8 0-16.9-2.8-21.5-8.4-4.6-5.6-6.8-12.6-6.8-21 0-8.7 2.4-16 7.1-21.9 4.8-5.9 11.3-8.8 19.6-8.8 7.9 0 13.7 2.4 17.6 7.2 3.8 4.8 5.9 10.8 5.8 17 .1 2.3-.1 4.6-.5 6.9 0 .6-.4 1-1 1C184.5 112.5 180.5 112.7 176.4 112.6zM154.6 103.4h15.7c1.9.1 3.9 0 5.8-.2.1-.5.1-1.1.1-1.7 0-2.9-.8-5.7-2.4-8.1-1.6-2.4-4.2-3.6-7.7-3.6-3.2-.2-6.2 1.3-8.1 3.8C156.1 96.5 154.9 99.9 154.6 103.4L154.6 103.4z"></path>
  <path fill="#fff" d="M106.2 204H95.1l-2.9 9.5c0 .3-.2.5-.5.4 0 0 0 0 0 0h-5.2c-.3 0-.5-.2-.4-.6l10.1-32.1c.3-1 .4-2 .4-3 0-.2.1-.3.3-.3h7.3c.2 0 .3.1.4.3l11.4 35.2c.1.3 0 .5-.3.5h-5.9c-.2 0-.4-.1-.5-.3L106.2 204zM96.3 198h8.7c-.2.1-4.1-13.3-4.4-14.4l0 0C100.2 185.4 98.8 190.5 96.3 198zM140 208.4l-.8 5.1c0 .2-.2.4-.4.4 0 0 0 0 0 0h-18.2c-.3 0-.5-.1-.5-.4v-35.1c0-.2.1-.4.3-.4 0 0 .1 0 .1 0h18.5c.2 0 .4.1.5.4 0 0 0 0 0 0l.6 5.1c0 .3-.1.5-.4.5H126v10h11.6c.2 0 .4.1.4.3 0 0 0 0 0 .1v5.2c0 .3-.1.4-.4.4H126v8h13.6C139.9 208 140 208.1 140 208.4zM144 213.6v-35.1c0-.2.1-.4.3-.4 2.3-.1 5.6-.1 9.8-.1 4.8 0 8.3 1.1 10.5 3.3 2.2 2.1 3.5 5.1 3.4 8.2 0 4-1.4 7.4-4.1 9.4-3.1 2.1-6.8 3.2-10.5 3h-1.8c-.7 0-1.6 0-1.6 0v11.7c0 .2-.1.4-.4.4h-5.2c-.2 0-.4-.1-.4-.3C144 213.7 144 213.7 144 213.6zM150 184v12c1.1.1 2.1 0 3.7 0 2 .1 3.9-.5 5.6-1.6 1.4-1.1 2.1-2.3 2.2-4.8 0-4.4-5-5.6-7.4-5.6C152.2 184 151 183.9 150 184z"></path>
</svg>
