<svg xmlns="http://www.w3.org/2000/svg" viewBox="0 0 512 512" id="camera">
  <polygon fill="#475770" points="166.28 132.5 346.27 132.5 316.27 81 196.28 81 166.28 132.5"></polygon>
  <polygon fill="#323b49" points="196.28 81 166.28 132.5 196.28 132.5 226.28 81 196.28 81"></polygon>
  <path d="M346.27,140h-180a7.5,7.5,0,0,1-6.48-11.27l30-51.5a7.52,7.52,0,0,1,6.48-3.73h120a7.49,7.49,0,0,1,6.48,3.73l30,51.5A7.49,7.49,0,0,1,346.27,140ZM179.32,125H333.23L312,88.5H200.59Z"></path>
  <rect width="50" height="30" x="16.73" y="147.63" fill="#e04955" transform="rotate(180 41.735 162.625)"></rect>
  <rect width="20" height="30" x="16.73" y="147.63" fill="#c40955"></rect>
  <path d="M66.73,185.13h-50a7.5,7.5,0,0,1-7.5-7.5v-30a7.5,7.5,0,0,1,7.5-7.5h50a7.49,7.49,0,0,1,7.5,7.5v30A7.5,7.5,0,0,1,66.73,185.13Zm-42.5-15h35v-15h-35Z"></path>
  <path fill="#82abca" d="M484.5,133h-80a20,20,0,0,0-20,20v-.5a20,20,0,0,0-20-20H111l-30,45H7.5V411a20,20,0,0,0,20,20h337a20,20,0,0,0,20-20,20,20,0,0,0,20,20h80a20,20,0,0,0,20-20V153A20,20,0,0,0,484.5,133Z"></path>
  <path fill="#4a82ae" d="M27.5,391V177.5H7.5V411a20,20,0,0,0,20,20h337a20,20,0,0,0,20-20H47.5A20,20,0,0,1,27.5,391Z"></path>
  <polygon fill="#4a82ae" points="101 157.5 117.67 132.5 111 132.5 94.34 157.5 101 157.5"></polygon>
  <path fill="#4a82ae" d="M384.5,411a20,20,0,0,0,20,20h80a20,20,0,0,0,20-20Z"></path>
  <path d="M484.5,438.5h-80a27.43,27.43,0,0,1-20-8.64,27.43,27.43,0,0,1-20,8.64H27.5A27.54,27.54,0,0,1,0,411V177.5A7.5,7.5,0,0,1,7.5,170H77l27.77-41.66A7.5,7.5,0,0,1,111,125H364.5a27.43,27.43,0,0,1,20.24,8.9,27.39,27.39,0,0,1,19.76-8.4h80A27.54,27.54,0,0,1,512,153V411A27.54,27.54,0,0,1,484.5,438.5Zm-100-35A7.5,7.5,0,0,1,392,411a12.52,12.52,0,0,0,12.5,12.5h80A12.52,12.52,0,0,0,497,411V153a12.52,12.52,0,0,0-12.5-12.5h-80A12.52,12.52,0,0,0,392,153a7.5,7.5,0,0,1-15,0v-.5A12.52,12.52,0,0,0,364.5,140H115L87.24,181.66A7.49,7.49,0,0,1,81,185H15V411a12.52,12.52,0,0,0,12.5,12.5h337A12.52,12.52,0,0,0,377,411,7.5,7.5,0,0,1,384.5,403.5Z"></path>
  <rect width="60" height="30" x="414.44" y="103.17" fill="#475770" transform="rotate(180 444.435 118.165)"></rect>
  <rect width="20" height="30" x="414.44" y="103.17" fill="#323b49"></rect>
  <path d="M474.44,140.67h-60a7.5,7.5,0,0,1-7.5-7.5v-30a7.5,7.5,0,0,1,7.5-7.5h60a7.5,7.5,0,0,1,7.5,7.5v30A7.5,7.5,0,0,1,474.44,140.67Zm-52.5-15h45v-15h-45Z"></path>
  <rect width="73.5" height="80" x="7.5" y="261" fill="#475770"></rect>
  <path fill="#323b49" d="M27.5,311V261H7.5v80H81V321H37.5A10,10,0,0,1,27.5,311Z"></path>
  <path d="M81,348.5H7.5A7.5,7.5,0,0,1,0,341V261a7.5,7.5,0,0,1,7.5-7.5H81a7.5,7.5,0,0,1,7.5,7.5v80A7.5,7.5,0,0,1,81,348.5Zm-66-15H73.5v-65H15Z"></path>
  <rect width="240" height="180" x="81" y="211" fill="#475770"></rect>
  <polygon fill="#323b49" points="96 376 96 211 81 211 81 391 321 391 321 376 96 376"></polygon>
  <path d="M321,398.5H81a7.5,7.5,0,0,1-7.5-7.5V211a7.5,7.5,0,0,1,7.5-7.5H321a7.5,7.5,0,0,1,7.5,7.5V391A7.5,7.5,0,0,1,321,398.5Zm-232.5-15h225v-165H88.5Z"></path>
  <rect width="180" height="120" x="111" y="241" fill="#d5f1fe"></rect>
  <path fill="#93dcfc" d="M141,321V241H111V361H291V331H151A10,10,0,0,1,141,321Z"></path>
  <path d="M291 368.5H111a7.5 7.5 0 0 1-7.5-7.5V241a7.5 7.5 0 0 1 7.5-7.5H291a7.5 7.5 0 0 1 7.5 7.5V361A7.5 7.5 0 0 1 291 368.5zm-172.5-15h165v-105h-165zM384.5 240a7.5 7.5 0 0 1-7.5-7.5v-80a7.5 7.5 0 0 1 15 0v80A7.5 7.5 0 0 1 384.5 240z"></path>
  <circle cx="409.5" cy="331" r="55" fill="#475770"></circle>
  <path fill="#323b49" d="M424.5,371a55,55,0,0,1-45.66-85.66,55,55,0,1,0,76.32,76.32A54.7,54.7,0,0,1,424.5,371Z"></path>
  <path d="M409.5,393.5A62.5,62.5,0,1,1,472,331,62.57,62.57,0,0,1,409.5,393.5Zm0-110A47.5,47.5,0,1,0,457,331,47.56,47.56,0,0,0,409.5,283.5Z"></path>
  <circle cx="409.5" cy="331" r="20" fill="#e04955"></circle>
  <path fill="#c40955" d="M424.5,336A20,20,0,0,1,405,311.52a20,20,0,1,0,24,24A20,20,0,0,1,424.5,336Z"></path>
  <path d="M409.5,358.5A27.5,27.5,0,1,1,437,331,27.54,27.54,0,0,1,409.5,358.5Zm0-40A12.5,12.5,0,1,0,422,331,12.52,12.52,0,0,0,409.5,318.5Z"></path>
  <rect width="80" height="50" x="216" y="132.5" fill="#ffd508"></rect>
  <path fill="#fcb54c" d="M236,152.5v-20H216v50h80v-20H246A10,10,0,0,1,236,152.5Z"></path>
  <path d="M296,190H216a7.5,7.5,0,0,1-7.5-7.5v-50A7.5,7.5,0,0,1,216,125h80a7.5,7.5,0,0,1,7.5,7.5v50A7.5,7.5,0,0,1,296,190Zm-72.5-15h65V140h-65Z"></path>
  <circle cx="444.44" cy="216" r="30" fill="#e04955"></circle>
  <path fill="#c40955" d="M459.44,231a30,30,0,0,1-27.34-42.34,30,30,0,1,0,39.68,39.68A29.93,29.93,0,0,1,459.44,231Z"></path>
  <path d="M444.44,253.5a37.5,37.5,0,1,1,37.5-37.5A37.54,37.54,0,0,1,444.44,253.5Zm0-60a22.5,22.5,0,1,0,22.5,22.5A22.52,22.52,0,0,0,444.44,193.5Z"></path>
  <path d="M444.44,223.55a7.53,7.53,0,1,1,7.5-7.6v.1A7.5,7.5,0,0,1,444.44,223.55Z"></path>
</svg>
