<svg xmlns="http://www.w3.org/2000/svg" viewBox="0 0 128 128" id="collaboration">
  <defs>
    <linearGradient id="a" x1="3" x2="125" y1="64" y2="64" gradientUnits="userSpaceOnUse">
      <stop offset="0" stop-color="#aa076b"></stop>
      <stop offset="1" stop-color="#62045f"></stop>
    </linearGradient>
  </defs>
  <path fill="url(#a)" d="M124.9137,124.4062a1.0006,1.0006,0,0,1-1.32.5079L86.58,108.4805a16.7882,16.7882,0,0,1-9.958-15.3389l.063-10.67A61.6694,61.6694,0,0,0,69.8178,53.876l-.2412-.4658a5.14,5.14,0,0,1,8.5078-5.6641l1.9668,2.3662a63.3481,63.3481,0,0,1,8.3149,12.92,61.8139,61.8139,0,0,0-12.227-32.0107l-1.8564-2.4531a5.958,5.958,0,0,1,.6709-7.9541,5.7953,5.7953,0,0,1,4.2626-1.61,5.9037,5.9037,0,0,1,4.1509,1.8828L89.04,26.9521a63.1621,63.1621,0,0,1,16.2406,33.0127l3.8013,23.1377a14.7256,14.7256,0,0,0,8.5746,11.1094l6.749,2.9961a1,1,0,0,1-.8115,1.8281l-6.749-2.9961a16.72,16.72,0,0,1-9.7367-12.6132l-3.8013-23.1377A61.1723,61.1723,0,0,0,87.579,28.3174L81.9061,22.252a3.9416,3.9416,0,0,0-5.5829-.1807,3.9626,3.9626,0,0,0-.4458,5.29l1.8564,2.4532A63.7833,63.7833,0,0,1,90.578,68.085a1,1,0,0,1-1.9111.4121l-1.4458-3.1934a61.3285,61.3285,0,0,0-8.708-13.9121l-1.9668-2.3662A3.1394,3.1394,0,0,0,71.353,52.49l.2412.4659a63.6915,63.6915,0,0,1,7.09,29.5273l-.063,10.6641a14.7845,14.7845,0,0,0,8.77,13.5048l37.0144,16.4336A1.0007,1.0007,0,0,1,124.9137,124.4062ZM56.9019,46.8906a5.1391,5.1391,0,0,0-6.9863.8555l-1.9668,2.3662a63.3481,63.3481,0,0,0-8.3149,12.92,61.8139,61.8139,0,0,1,12.227-32.0107l1.8564-2.4531a5.9584,5.9584,0,0,0-.67-7.9541,5.8021,5.8021,0,0,0-4.2631-1.61,5.9037,5.9037,0,0,0-4.1509,1.8828L38.96,26.9521A63.1621,63.1621,0,0,0,22.72,59.9648L18.9182,83.1025a14.7256,14.7256,0,0,1-8.5746,11.1094L3.5946,97.208a1,1,0,0,0,.8115,1.8281l6.749-2.9961a16.72,16.72,0,0,0,9.7367-12.6132l3.8013-23.1377A61.1723,61.1723,0,0,1,40.421,28.3174l5.6729-6.0654a3.9422,3.9422,0,0,1,5.5834-.1807,3.9631,3.9631,0,0,1,.4453,5.29l-1.8564,2.4532A63.7833,63.7833,0,0,0,37.422,68.085a1,1,0,0,0,1.9111.4121l1.4458-3.1934a61.3285,61.3285,0,0,1,8.708-13.9121l1.9668-2.3662A3.1394,3.1394,0,0,1,56.647,52.49l-.2412.4659a63.6915,63.6915,0,0,0-7.09,29.5273l.063,10.6582a14.7866,14.7866,0,0,1-8.7695,13.5107L3.5946,123.0859a1,1,0,0,0,.8115,1.8282l37.0144-16.4336a16.79,16.79,0,0,0,9.958-15.3448l-.063-10.664A61.6694,61.6694,0,0,1,58.1822,53.876l.2412-.4658A5.1287,5.1287,0,0,0,56.9019,46.8906ZM67.9287,22.7451l-3.9263-2.18-3.9311,2.18a2.0084,2.0084,0,0,1-2.955-2.084l.7734-4.7636L54.57,12.4727a2.0137,2.0137,0,0,1,1.1352-3.3936l4.4951-.69,1.9809-4.23a2.0066,2.0066,0,0,1,3.6368,0L67.793,8.3828l4.5019.6963A2.0138,2.0138,0,0,1,73.43,12.4727l-3.3159,3.4121.7705,4.7773a2.0087,2.0087,0,0,1-2.9555,2.083Zm.9707-1.748-.7637-4.7793a2.026,2.026,0,0,1,.5425-1.7256l3.3169-3.4141-4.4995-.7129A2.0039,2.0039,0,0,1,65.981,9.23L64.0068,5.0059l-.0053-.01L62.0186,9.2305a2.0035,2.0035,0,0,1-1.5152,1.1347l-4.4945.6905L59.3208,14.49a2.0285,2.0285,0,0,1,.5435,1.7266l-.774,4.7656,3.9366-2.165a1.9993,1.9993,0,0,1,1.9448-.001ZM12.5706,23.4727a2.0138,2.0138,0,0,1,1.1353-3.3936l4.495-.69,1.981-4.23a2.0065,2.0065,0,0,1,3.6367,0l1.9746,4.2246,4.5019.6963A2.0138,2.0138,0,0,1,31.43,23.4727L28.114,26.8848l.77,4.7773a2.0087,2.0087,0,0,1-2.9555,2.083l-3.9263-2.18-3.9312,2.18a2.0084,2.0084,0,0,1-2.955-2.084l.7734-4.7636Zm1.4385-1.417L17.321,25.49a2.0282,2.0282,0,0,1,.5435,1.7266l-.7739,4.7656,3.9365-2.165a1.9993,1.9993,0,0,1,1.9448-.001L26.9,31.9971l-.7636-4.7793a2.0257,2.0257,0,0,1,.5424-1.7256l3.3169-3.4141-4.5-.7129A2.0042,2.0042,0,0,1,23.9812,20.23l-1.9741-4.2236-.0054-.01-1.9829,4.2344a2.0036,2.0036,0,0,1-1.5151,1.1347Zm82.561,1.417a2.0138,2.0138,0,0,1,1.1353-3.3936l4.495-.69,1.981-4.23a2.0065,2.0065,0,0,1,3.6367,0l1.9746,4.2246,4.5019.6963a2.0138,2.0138,0,0,1,1.1348,3.3936l-3.3159,3.4121.77,4.7773a2.0087,2.0087,0,0,1-2.9555,2.083l-3.9263-2.18-3.9312,2.18a2.0084,2.0084,0,0,1-2.955-2.084l.7735-4.7636Zm1.4385-1.417,3.312,3.4345a2.0281,2.0281,0,0,1,.5434,1.7266l-.7739,4.7656,3.9365-2.165a1.9993,1.9993,0,0,1,1.9448-.001l3.9278,2.1807-.7637-4.7793a2.0257,2.0257,0,0,1,.5425-1.7256l3.3168-3.4141-4.4994-.7129a2.0042,2.0042,0,0,1-1.5147-1.1357l-1.9741-4.2236-.0054-.01-1.9829,4.2344a2.0036,2.0036,0,0,1-1.5151,1.1347Z"></path>
</svg>
