<svg xmlns="http://www.w3.org/2000/svg" viewBox="0 0 24 24" id="eye">
  <g>
    <path fill="#29b6f6" d="M22.28369,10.335,19.231,7.56055a10.7027,10.7027,0,0,0-14.46192,0L1.71582,10.335A2.25122,2.25122,0,0,0,1.71631,13.665L4.769,16.43945a10.7044,10.7044,0,0,0,14.46192,0L22.28418,13.665a2.25173,2.25173,0,0,0,0-3.33008Z"></path>
    <path fill="#3a3e3f" d="M15.38574,9.873a.75479.75479,0,0,0-.63037.12207A1.24918,1.24918,0,0,1,12.75,9a.944.944,0,0,1,.03613-.27734.76308.76308,0,0,0-.14746-.667A.81591.81591,0,0,0,12,7.75,4.25,4.25,0,1,0,16.25,12a4.04227,4.04227,0,0,0-.37012-1.7168A.74909.74909,0,0,0,15.38574,9.873Z"></path>
    <circle cx="15" cy="10" r="2" fill="#fff"></circle>
  </g>
</svg>
