<svg xmlns="http://www.w3.org/2000/svg" xmlns:xlink="http://www.w3.org/1999/xlink" width="32" height="32" viewBox="0 0 8.467 8.467" id="laptop">
  <defs>
    <linearGradient id="a">
      <stop offset="0" stop-color="#0952ec"></stop>
      <stop offset="1" stop-color="#589dee"></stop>
    </linearGradient>
    <linearGradient id="b">
      <stop offset="0" stop-color="#a2cdf5"></stop>
      <stop offset="1" stop-color="#589dee"></stop>
    </linearGradient>
    <linearGradient xlink:href="#a" id="e" x1="5" x2="27" y1="18.001" y2="18.001" gradientTransform="matrix(-.26458 0 0 .26458 8.467 288.533)" gradientUnits="userSpaceOnUse"></linearGradient>
    <linearGradient xlink:href="#b" id="f" x1=".793" x2="7.674" y1="295.678" y2="295.678" gradientUnits="userSpaceOnUse"></linearGradient>
    <linearGradient xlink:href="#b" id="c" x1="2.471" x2="5.996" y1="289.371" y2="289.371" gradientUnits="userSpaceOnUse"></linearGradient>
    <linearGradient xlink:href="#b" id="d" x1="3.206" x2="5.261" y1="290.282" y2="290.282" gradientUnits="userSpaceOnUse"></linearGradient>
  </defs>
  <g transform="translate(0 -288.533)">
    <path fill="url(#c)" fill-rule="evenodd" d="m 4.2324219,288.79688 c -0.6099677,0 -1.2197348,0.23145 -1.6835938,0.69531 a 0.26516504,0.26516504 0 1 0 0.375,0.375 c 0.7254979,-0.7255 1.893641,-0.72549 2.6191407,0 a 0.26516504,0.26516504 0 1 0 0.375,-0.375 c -0.4638604,-0.46386 -1.0755792,-0.69532 -1.6855469,-0.69531 z" color="#000" font-family="sans-serif" font-weight="400" overflow="visible" paint-order="stroke fill markers" style="line-height:normal;font-variant-ligatures:normal;font-variant-position:normal;font-variant-caps:normal;font-variant-numeric:normal;font-variant-alternates:normal;font-feature-settings:normal;text-indent:0;text-align:start;text-decoration-line:none;text-decoration-style:solid;text-decoration-color:#000;text-transform:none;text-orientation:mixed;shape-padding:0;isolation:auto;mix-blend-mode:normal"></path>
    <path fill="url(#d)" fill-rule="evenodd" d="m 4.2324219,289.85547 c -0.3391175,0 -0.6763872,0.12951 -0.9335938,0.38672 a 0.26460978,0.26460978 0 1 0 0.3730469,0.37304 c 0.3121949,-0.31219 0.8108526,-0.31219 1.1230469,0 a 0.26460978,0.26460978 0 1 0 0.3730469,-0.37304 c -0.257208,-0.25721 -0.5964294,-0.38672 -0.9355469,-0.38672 z" color="#000" font-family="sans-serif" font-weight="400" overflow="visible" paint-order="stroke fill markers" style="line-height:normal;font-variant-ligatures:normal;font-variant-position:normal;font-variant-caps:normal;font-variant-numeric:normal;font-variant-alternates:normal;font-feature-settings:normal;text-indent:0;text-align:start;text-decoration-line:none;text-decoration-style:solid;text-decoration-color:#000;text-transform:none;text-orientation:mixed;shape-padding:0;isolation:auto;mix-blend-mode:normal"></path>
    <path fill="url(#e)" fill-rule="evenodd" d="m 6.3499999,291.44375 c 0.4351622,0 0.79375,0.35859 0.79375,0.79375 v 2.43086 c -0.08342,-0.03 -0.1719915,-0.0491 -0.2651001,-0.0491 H 5.2906331 c -0.069453,10e-5 -0.1360664,0.0272 -0.1855184,0.076 l -0.4526857,0.4532 H 3.8142375 l -0.4532024,-0.4532 c -0.049452,-0.0488 -0.1160663,-0.0759 -0.1855184,-0.076 h -1.5875 c -0.093109,0 -0.1816796,0.0191 -0.2651001,0.0491 v -2.43086 c 0,-0.43516 0.3585877,-0.79375 0.79375,-0.79375 z" color="#000" font-family="sans-serif" font-weight="400" overflow="visible" paint-order="stroke fill markers" style="line-height:normal;font-variant-ligatures:normal;font-variant-position:normal;font-variant-caps:normal;font-variant-numeric:normal;font-variant-alternates:normal;font-feature-settings:normal;text-indent:0;text-align:start;text-decoration-line:none;text-decoration-style:solid;text-decoration-color:#000;text-transform:none;text-orientation:mixed;shape-padding:0;isolation:auto;mix-blend-mode:normal"></path>
    <path fill="url(#f)" fill-rule="evenodd" d="m 1.5878906,294.61914 c -0.4351521,0 -0.79492185,0.35782 -0.79492185,0.79297 v 0.5293 c 0,0.43515 0.35976975,0.79492 0.79492185,0.79492 h 5.2910156 c 0.4351522,0 0.7949219,-0.35977 0.7949219,-0.79492 v -0.5293 c 0,-0.43515 -0.3597697,-0.79297 -0.7949219,-0.79297 H 5.2910156 c -0.069452,7e-5 -0.1360947,0.0274 -0.1855468,0.0762 l -0.453125,0.45313 H 3.8144531 l -0.453125,-0.45313 c -0.049452,-0.0488 -0.1160945,-0.0761 -0.1855469,-0.0762 z" color="#000" font-family="sans-serif" font-weight="400" overflow="visible" paint-order="stroke fill markers" style="line-height:normal;font-variant-ligatures:normal;font-variant-position:normal;font-variant-caps:normal;font-variant-numeric:normal;font-variant-alternates:normal;font-feature-settings:normal;text-indent:0;text-align:start;text-decoration-line:none;text-decoration-style:solid;text-decoration-color:#000;text-transform:none;text-orientation:mixed;shape-padding:0;isolation:auto;mix-blend-mode:normal"></path>
  </g>
</svg>
