<svg xmlns="http://www.w3.org/2000/svg" id="manufacturing" enable-background="new 0 0 64 64" viewBox="0 0 64 64">
  <path fill="#dcf3f5" d="M22.11,21.95c12.61,6.12,21.26-3.66,24.02-10.5c3.16-7.83,6.83-9.81,10-9.45c2.92,0.33,11.03,5.28,6.57,34.91
			c0,0-2.96,26.44-31.17,27.06c-14.2,0.31-22.23-6.65-26.65-13.33c-4.31-6.51-5.83-14.55-4.24-22.2
			C1.26,25.32,4.89,13.59,22.11,21.95z"></path>
  <path fill="#c3dfe5" d="M62.68,36.91c0,0-2.96,26.44-31.17,27.05C17.31,64.28,9.28,57.32,4.86,50.64c-1.31-1.97-2.36-4.08-3.13-6.28
			c4.75,2.85,10.97,4.78,19.07,4.61C50.84,48.35,54,21.91,54,21.91c1.37-8.54,1.63-15.03,1.23-19.94c0.3-0.01,0.6,0,0.89,0.04
			C59.04,2.33,67.15,7.28,62.68,36.91z"></path>
  <path fill="#dcf3f5" d="M9.22,2.9c3.45-3.45,7.15-3.62,9.32-1.45s2,5.87-1.45,9.32s-8.88,5.36-11.06,3.18S5.77,6.35,9.22,2.9z"></path>
  <g>
    <path fill="#784e88" d="M57.24,3H6.77c-1.21,0-2.2,0.98-2.2,2.19v46.24c0,1.21,0.99,2.2,2.2,2.2h9.47v3.24c0,0.19,0.12,0.36,0.3,0.42
			l15.28,5.68h0.02c0.05,0.02,0.1,0.03,0.15,0.03C32,62.99,32,63,32,63c0.06,0,0.11-0.02,0.17-0.04l8.17-3.03
			c0.01-0.01,0.02-0.01,0.03-0.01l7.1-2.64c0.18-0.06,0.3-0.23,0.3-0.42v-3.24h9.48c1.21,0,2.19-0.99,2.19-2.2V5.19
			C59.42,3.98,58.45,3,57.24,3z M23.36,58.84l-6.19-2.3v-3.37c0-0.01,0-0.01,0-0.01v-3.98l6.19,2.3V58.84z M23.36,50.49l-6.19-2.3
			v-0.7c0,0,0,0,0-0.01c0,0,0,0,0-0.01v-7.28l6.19,2.3V50.49z M18.03,39.53l7.72-2.86l5.05,2.1l-6.99,2.91L18.03,39.53z
			 M27.02,36.19L32,34.35l4.98,1.85L32,38.27L27.02,36.19z M31.54,61.87l-7.26-2.7v-7.36l7.26,2.7V61.87z M31.54,53.53l-7.26-2.7v-8
			l7.26,2.7V53.53z M32,44.71l-6.92-2.57L32,39.27l6.91,2.88L32,44.71z M39.72,59.18l-7.26,2.7v-7.36l7.26-2.7V59.18z M39.72,50.84
			l-7.26,2.69v-8l7.26-2.7V50.84z M40.19,41.68l-6.99-2.91l5.05-2.1l7.72,2.86L40.19,41.68z M46.83,53.15
			C46.83,53.16,46.83,53.16,46.83,53.15v3.39l-6.19,2.3v-7.36l6.19-2.3V53.15z M46.83,47.48C46.83,47.48,46.83,47.48,46.83,47.48
			v0.71l-6.19,2.31v-8.01l6.19-2.3V47.48z M47.68,39.29c-0.01-0.02-0.02-0.03-0.03-0.04c-0.05-0.06-0.11-0.12-0.19-0.15
			c0,0,0-0.01-0.01-0.01l-15.3-5.67c-0.1-0.05-0.21-0.05-0.31,0l-15.3,5.67c-0.01,0-0.01,0.01-0.01,0.01
			c-0.08,0.03-0.14,0.08-0.19,0.15c-0.01,0.01-0.02,0.03-0.03,0.05c-0.05,0.06-0.07,0.15-0.07,0.23v7.5H8.96V13.24h4.99v1.4
			c0,0.26,0.21,0.46,0.46,0.46h11.77l1.38,6.74c0.05,0.21,0.23,0.37,0.45,0.37h0.9L29.66,27c0.03,0.23,0.22,0.4,0.45,0.4h0.15
			l1.31,3.88c0.06,0.19,0.24,0.31,0.43,0.31c0.19,0,0.38-0.12,0.43-0.31l1.31-3.88h0.15c0.23,0,0.42-0.17,0.45-0.4l0.74-4.79h0.9
			c0.22,0,0.42-0.16,0.45-0.37l1.38-6.74h11.77c0.26,0,0.46-0.2,0.46-0.46v-1.4h4.99v33.78h-7.28v-7.5
			C47.76,39.43,47.73,39.36,47.68,39.29z M49.58,10.45H14.42c-0.25,0-0.46,0.2-0.46,0.46v1.4H8.96V7.38h46.08v4.93h-4.99v-1.4
			C50.05,10.65,49.84,10.45,49.58,10.45z M38.18,12.48c-0.08-0.1-0.22-0.17-0.36-0.17H26.18c-0.14,0-0.27,0.06-0.36,0.17
			c-0.08,0.11-0.12,0.25-0.09,0.39L26,14.18H14.88v-2.81h34.25v2.81H38l0.27-1.31C38.3,12.73,38.26,12.59,38.18,12.48z M30.5,26.47
			l-0.66-4.26h4.3l-0.66,4.26H30.5z M32.78,27.4L32,29.69l-0.78-2.29H32.78z M28.39,21.29l-1.64-8.05h10.5l-1.64,8.05H28.39z
			 M58.5,51.42c0,0.7-0.56,1.27-1.26,1.27h-9.48v-4.75h7.74c0.26,0,0.46-0.2,0.46-0.46V6.92c0-0.26-0.2-0.46-0.46-0.46h-47
			c-0.25,0-0.46,0.2-0.46,0.46v40.56c0,0.26,0.21,0.46,0.46,0.46h7.74v4.75H6.77c-0.71,0-1.27-0.56-1.27-1.27V5.19
			c0-0.7,0.57-1.26,1.27-1.26h50.46c0.7,0,1.26,0.56,1.26,1.26V51.42z"></path>
    <path fill="#fbfbfb" d="M46.83 49.18v3.97c0 .01 0 .01 0 .01v3.38l-6.19 2.3v-7.36L46.83 49.18zM46.83 40.19v7.29c0 0 0 0 0 .01v.7l-6.19 2.31v-8.01L46.83 40.19z"></path>
    <polygon fill="#fbfbfb" points="39.72 51.82 39.72 59.18 32.46 61.87 32.46 54.52"></polygon>
    <polygon fill="#fbfbfb" points="39.72 42.83 39.72 50.84 32.46 53.53 32.46 45.53"></polygon>
    <polygon fill="#fbfbfb" points="31.54 54.52 31.54 61.87 24.28 59.18 24.28 51.82"></polygon>
    <polygon fill="#fbfbfb" points="31.54 45.53 31.54 53.53 24.28 50.83 24.28 42.83"></polygon>
    <path fill="#a0c7fb" d="M45.99 49.5l.85-.32v3.97c0 .01 0 .01 0 .01v3.38l-.85.32v-3.7c0 0 0 0 0-.01V49.5zM46.84 40.19v7.29c0 0 0 0 0 .01v.71l-.85.32v-1.03c0-.01 0-.01 0-.01v-6.97L46.84 40.19z"></path>
    <polygon fill="#fb9fc0" points="31.54 45.53 31.54 53.53 30.7 53.22 30.7 45.22"></polygon>
    <polygon fill="#fb9fc0" points="30.7 54.21 31.54 54.52 31.54 61.88 30.7 61.57"></polygon>
    <path fill="#fbfbfb" d="M23.36 51.48v7.36l-6.19-2.3v-3.37c0-.01 0-.01 0-.01v-3.98L23.36 51.48zM23.36 42.49v8l-6.19-2.3v-.7c0 0 0 0 0-.01 0 0 0 0 0-.01v-7.28L23.36 42.49z"></path>
    <polygon fill="#fbfbfb" points="30.8 38.77 23.81 41.68 18.03 39.53 25.75 36.66"></polygon>
    <polygon fill="#fbfbfb" points="36.98 36.19 32 38.27 27.02 36.19 32 34.35"></polygon>
    <polygon fill="#fbfbfb" points="38.91 42.15 32 44.71 25.08 42.15 32 39.27"></polygon>
    <polygon fill="#fbfbfb" points="45.97 39.53 40.19 41.68 33.2 38.77 38.25 36.66"></polygon>
    <path fill="#fbfbfb" d="M55.04,7.38v4.93h-4.99v-1.4c0-0.26-0.2-0.46-0.46-0.46H14.42c-0.25,0-0.46,0.2-0.46,0.46v1.4H8.96V7.38
			H55.04z"></path>
    <path fill="#a8d7e8" d="M16.24,44.09v2.93H8.96V13.24h2.93v28.2c0,1.46,1.19,2.65,2.65,2.65H16.24z"></path>
    <path fill="#fbfbfb" d="M55.04,13.24v33.78h-7.28v-7.5c0-0.09-0.03-0.17-0.07-0.24c-0.01-0.02-0.02-0.03-0.03-0.04
			c-0.05-0.06-0.11-0.12-0.19-0.15c0,0,0-0.01-0.01-0.01l-15.3-5.67c-0.1-0.05-0.21-0.05-0.31,0l-15.3,5.67
			c-0.01,0-0.01,0.01-0.01,0.01c-0.08,0.03-0.14,0.08-0.19,0.15c-0.01,0.01-0.02,0.03-0.03,0.05c-0.05,0.06-0.07,0.15-0.07,0.23v7.5
			H8.96V13.24h4.99v1.4c0,0.26,0.21,0.46,0.46,0.46h11.77l1.38,6.74c0.05,0.21,0.23,0.37,0.45,0.37h0.9L29.66,27
			c0.03,0.23,0.22,0.4,0.45,0.4h0.15l1.31,3.88c0.06,0.19,0.24,0.31,0.43,0.31c0.19,0,0.38-0.12,0.43-0.31l1.31-3.88h0.15
			c0.23,0,0.42-0.17,0.45-0.4l0.74-4.79h0.9c0.22,0,0.42-0.16,0.45-0.37l1.38-6.74h11.77c0.26,0,0.46-0.2,0.46-0.46v-1.4H55.04z"></path>
    <rect width="1.02" height="33.78" x="54.02" y="13.24" fill="#a0c7fb"></rect>
    <rect width="1.02" height="4.93" x="54.02" y="7.39" fill="#a0c7fb"></rect>
    <path fill="#fbfbfb" d="M58.5,5.19v46.24c0,0.7-0.56,1.27-1.26,1.27h-9.48v-4.75h7.74c0.26,0,0.46-0.2,0.46-0.46V6.92
			c0-0.26-0.2-0.46-0.46-0.46h-47c-0.25,0-0.46,0.2-0.46,0.46v40.56c0,0.26,0.21,0.46,0.46,0.46h7.74v4.75H6.77
			c-0.71,0-1.27-0.56-1.27-1.27V5.19c0-0.7,0.57-1.26,1.27-1.26h50.46C57.94,3.92,58.5,4.49,58.5,5.19z"></path>
    <path fill="#fb9fc0" d="M58.5 50.55v.88c0 .7-.56 1.27-1.26 1.27h-9.48v-.88h9.48C57.94 51.82 58.5 51.25 58.5 50.55zM16.24 51.82v.88H6.77c-.71 0-1.27-.56-1.27-1.27v-.88c0 .71.56 1.27 1.27 1.27H16.24z"></path>
    <path fill="#fbfbfb" d="M49.12,11.37v2.81H38l0.27-1.31c0.03-0.14-0.01-0.28-0.09-0.39c-0.08-0.1-0.22-0.17-0.36-0.17H26.18
			c-0.14,0-0.27,0.06-0.36,0.17c-0.08,0.11-0.12,0.25-0.09,0.39L26,14.18H14.88v-2.81H49.12z"></path>
    <rect width="34.24" height=".66" x="14.88" y="11.37" fill="#fb9fc0"></rect>
    <polygon fill="#fbfbfb" points="32.78 27.4 32 29.69 31.22 27.4"></polygon>
    <polygon fill="#fbfbfb" points="34.15 22.21 33.5 26.47 30.5 26.47 29.85 22.21"></polygon>
    <polygon fill="#fbfbfb" points="37.25 13.24 35.61 21.29 28.39 21.29 26.75 13.24"></polygon>
    <polygon fill="#fb9fc0" points="34.15 22.21 33.5 26.47 32.98 26.47 33.47 22.21"></polygon>
    <polygon fill="#a0c7fb" points="37.25 13.24 35.61 21.29 34.95 21.29 36.35 13.24"></polygon>
  </g>
</svg>
