<svg xmlns="http://www.w3.org/2000/svg" width="100" height="100" enable-background="new 0 0 100 100" viewBox="0 0 100 100" id="neural-network">
  <g>
    <g>
      <g>
        <path fill="#93bd00" d="M39.5 18v5.5h6v14.065l.33.119c.981.354 1.64 1.284 1.64 2.315 0 1.362-1.108 2.471-2.471 2.471S42.529 41.362 42.529 40c0-1.031.659-1.961 1.641-2.315l.331-.119V24.5h-6v-6H35c-4.865 0-8.5 3.959-8.5 7.5v1.5h10v5.095l.33.119c.981.354 1.64 1.284 1.64 2.315 0 1.362-1.108 2.471-2.471 2.471s-2.471-1.108-2.471-2.471c0-1.031.659-1.961 1.641-2.315l.331-.119V28.5h-9.503C25.69 28.502 18.5 28.648 18.5 37v2.5h7.066l.119-.331c.354-.981 1.284-1.641 2.315-1.641 1.362 0 2.471 1.108 2.471 2.471S29.362 42.47 28 42.47c-1.031 0-1.961-.659-2.315-1.64l-.119-.33h-7.569C15.955 40.516 12.5 41.692 12.5 46v8c0 5.438 5.275 5.5 5.5 5.5h13.5v-7.096l-.331-.119c-.981-.354-1.64-1.283-1.64-2.314 0-1.362 1.108-2.471 2.471-2.471s2.471 1.108 2.471 2.471c0 1.031-.659 1.961-1.64 2.314L32.5 52.404V60.5h-14V63c0 8.354 7.194 8.498 7.503 8.5H34.5v2.037l.332.117C35.83 74.012 36.5 74.953 36.5 76c0 1.379-1.122 2.5-2.5 2.5s-2.5-1.121-2.5-2.5c0-1.047.67-1.988 1.668-2.346l.332-.117V72.5h-7.001L26.5 74c0 3.541 3.635 7.5 8.5 7.5h3.5v-18h4.037l.118-.332C43.011 62.17 43.954 61.5 45 61.5c1.378 0 2.5 1.121 2.5 2.5s-1.122 2.5-2.5 2.5c-1.047 0-1.989-.67-2.344-1.668L42.537 64.5H39.5V82c0 5.5 3.453 5.5 6.5 5.5h3.5v-33h-9v-4.066l-.331-.119c-.981-.354-1.64-1.284-1.64-2.315 0-1.362 1.108-2.471 2.471-2.471S43.47 46.638 43.47 48c0 1.031-.659 1.961-1.64 2.315L41.5 50.434V53.5h8v-41H46C42.953 12.5 39.5 12.5 39.5 18zM82 40.5h-7.565l-.119.33c-.354.981-1.284 1.64-2.315 1.64-1.361 0-2.471-1.108-2.471-2.471s1.109-2.471 2.471-2.471c1.031 0 1.962.659 2.315 1.641l.118.331H81.5V37c0-8.353-7.193-8.498-7.504-8.5H64.5v4.096l.33.119c.982.354 1.641 1.284 1.641 2.315 0 1.362-1.107 2.471-2.471 2.471-1.361 0-2.471-1.108-2.471-2.471 0-1.031.66-1.961 1.641-2.315l.33-.119V27.5h10.002L73.5 26c0-3.541-3.635-7.5-8.5-7.5h-3.5v6h-6v13.066l.33.119c.982.354 1.641 1.284 1.641 2.315 0 1.362-1.107 2.471-2.471 2.471-1.361 0-2.471-1.108-2.471-2.471 0-1.031.66-1.961 1.641-2.315l.33-.119V23.5h6V18c0-5.5-3.453-5.5-6.5-5.5h-3.5v41h8v-3.066l-.33-.119c-.98-.354-1.641-1.284-1.641-2.315 0-1.362 1.109-2.471 2.471-2.471 1.363 0 2.471 1.108 2.471 2.471 0 1.031-.658 1.961-1.64 2.315L59.5 50.434V54.5h-9v33H54c3.047 0 6.5 0 6.5-5.5V64.5h-3.037l-.117.332C56.988 65.83 56.047 66.5 55 66.5c-1.379 0-2.5-1.121-2.5-2.5s1.121-2.5 2.5-2.5c1.047 0 1.988.67 2.346 1.668l.117.332H61.5v18H65c4.865 0 8.5-3.959 8.5-7.5v-1.5h-7v1.037l.332.117C67.83 74.012 68.5 74.953 68.5 76c0 1.379-1.121 2.5-2.5 2.5s-2.5-1.121-2.5-2.5c0-1.047.67-1.988 1.668-2.346l.332-.117V71.5h8.504C74.31 71.498 81.5 71.352 81.5 63v-2.5h-14v-8.096l-.33-.119c-.981-.354-1.641-1.283-1.641-2.314 0-1.362 1.108-2.471 2.471-2.471s2.471 1.108 2.471 2.471c0 1.031-.659 1.961-1.641 2.314l-.33.119V59.5h13.504c2.041-.016 5.496-1.191 5.496-5.5v-8C87.5 40.563 82.225 40.5 82 40.5z"></path>
      </g>
      <g>
        <circle cx="45" cy="64" r="1.5" fill="#fce90a"></circle>
        <circle cx="34" cy="76" r="1.5" fill="#fce90a"></circle>
        <circle cx="32" cy="49.971" r="1.471" fill="#fce90a"></circle>
        <circle cx="28" cy="40" r="1.471" fill="#fce90a"></circle>
        <circle cx="36" cy="35.029" r="1.471" fill="#fce90a"></circle>
        <circle cx="45" cy="40" r="1.471" fill="#fce90a"></circle>
        <circle cx="41" cy="48" r="1.471" fill="#fce90a"></circle>
        <circle cx="68" cy="49.971" r="1.471" fill="#fce90a"></circle>
        <circle cx="66" cy="76" r="1.5" fill="#fce90a"></circle>
        <circle cx="55" cy="64" r="1.5" fill="#fce90a"></circle>
        <circle cx="59" cy="48" r="1.471" fill="#fce90a"></circle>
        <circle cx="55" cy="40" r="1.471" fill="#fce90a"></circle>
        <circle cx="64" cy="35.029" r="1.471" fill="#fce90a"></circle>
        <circle cx="72" cy="40" r="1.471" fill="#fce90a"></circle>
      </g>
      <path d="M83,39.074V37c0-7.875-5.654-9.549-8-9.905V26c0-4.794-4.673-9-10-9h-3.037c-0.459-6-5.121-6-7.963-6h-8
			c-2.842,0-7.503,0-7.963,6H35c-5.327,0-10,4.206-10,9v1.095c-2.345,0.355-8,2.03-8,9.905v2.074c-2.498,0.357-6,2.083-6,6.926v8
			c0,4.842,3.502,6.568,6,6.926V63c0,7.875,5.655,9.549,8,9.904V74c0,4.795,4.673,9,10,9h3.037c0.46,6,5.121,6,7.963,6h8
			c2.842,0,7.504,0,7.963-6H65c5.327,0,10-4.205,10-9v-1.096c2.346-0.355,8-2.029,8-9.904v-2.074c2.498-0.357,6-2.084,6-6.926v-8
			C89,41.158,85.498,39.431,83,39.074z M49,53h-7v-2.215c1.145-0.413,1.971-1.5,1.971-2.785c0-1.638-1.333-2.971-2.971-2.971
			S38.029,46.362,38.029,48c0,1.286,0.826,2.373,1.971,2.785V55h9v32h-3c-3.085,0-6,0-6-5V65h2.185c0.414,1.162,1.514,2,2.815,2
			c1.654,0,3-1.346,3-3s-1.346-3-3-3c-1.302,0-2.401,0.838-2.816,2H38v18h-3c-4.579,0-8-3.695-8-7l-0.001-1H33v0.184
			c-1.162,0.415-2,1.515-2,2.816c0,1.654,1.346,3,3,3s3-1.346,3-3c0-1.302-0.838-2.401-2-2.816V71h-8.997
			C25.717,70.998,19,70.861,19,63v-2h14v-8.244c1.145-0.412,1.971-1.5,1.971-2.785C34.971,48.333,33.638,47,32,47
			s-2.971,1.333-2.971,2.971c0,1.285,0.826,2.373,1.971,2.785V59H18c-0.204,0-5-0.057-5-5v-8c0-4.824,4.492-4.996,5-5h7.214
			c0.413,1.145,1.5,1.97,2.785,1.97c1.638,0,2.971-1.333,2.971-2.971S29.638,37.029,28,37.029c-1.286,0-2.373,0.826-2.785,1.971H19
			v-2c0-7.861,6.717-7.998,7-8h9v3.244c-1.146,0.413-1.971,1.499-1.971,2.785C33.029,36.667,34.361,38,36,38
			s2.971-1.333,2.971-2.971c0-1.286-0.825-2.372-1.97-2.785V27H27v-1c0-3.304,3.421-7,8-7h3v6h6v12.214
			c-1.146,0.413-1.971,1.5-1.971,2.785c0,1.638,1.333,2.971,2.971,2.971S47.97,41.638,47.97,40c0-1.286-0.825-2.372-1.97-2.785V23
			h-6v-5c0-5,2.915-5,6-5h3V53z M41.97,48c0,0.535-0.436,0.971-0.971,0.971S40.029,48.535,40.029,48s0.436-0.971,0.971-0.971
			S41.97,47.465,41.97,48z M44,64c0-0.551,0.449-1,1-1s1,0.449,1,1s-0.449,1-1,1S44,64.551,44,64z M34,75c0.551,0,1,0.449,1,1
			s-0.449,1-1,1s-1-0.449-1-1S33.449,75,34,75z M31.029,49.971C31.029,49.436,31.465,49,32,49s0.971,0.436,0.971,0.971
			S32.535,50.941,32,50.941S31.029,50.506,31.029,49.971z M27.029,40c0-0.535,0.436-0.971,0.971-0.971S28.97,39.464,28.97,40
			S28.535,40.97,28,40.97S27.029,40.535,27.029,40z M35.029,35.029c0-0.535,0.436-0.971,0.971-0.971s0.971,0.436,0.971,0.971
			S36.535,36,36,36S35.029,35.564,35.029,35.029z M44.029,40c0-0.535,0.436-0.971,0.971-0.971S45.97,39.464,45.97,40
			S45.535,40.97,45,40.97S44.029,40.535,44.029,40z M87,54c0,4.824-4.492,4.996-5,5H69v-6.244c1.145-0.412,1.971-1.5,1.971-2.785
			C70.971,48.333,69.639,47,68,47s-2.971,1.333-2.971,2.971c0,1.285,0.826,2.373,1.971,2.785V61h14v2c0,7.861-6.717,7.998-7,8h-9
			v2.184c-1.162,0.415-2,1.515-2,2.816c0,1.654,1.346,3,3,3s3-1.346,3-3c0-1.302-0.838-2.401-2-2.816V73h6v1c0,3.305-3.422,7-8,7h-3
			V63h-4.184c-0.415-1.162-1.515-2-2.816-2c-1.654,0-3,1.346-3,3s1.346,3,3,3c1.302,0,2.401-0.838,2.816-2H60v17c0,5-2.914,5-6,5h-3
			V55h9v-4.215c1.146-0.413,1.971-1.5,1.971-2.785c0-1.638-1.332-2.971-2.971-2.971c-1.638,0-2.971,1.333-2.971,2.971
			c0,1.286,0.826,2.373,1.971,2.785V53h-7V13h3c3.086,0,6,0,6,5v5h-6v14.214c-1.145,0.413-1.971,1.5-1.971,2.785
			c0,1.638,1.333,2.971,2.971,2.971c1.639,0,2.971-1.333,2.971-2.971c0-1.286-0.825-2.373-1.971-2.785V25h6v-6h3
			c4.578,0,8,3.696,8,7l0.001,1H63v5.244c-1.145,0.413-1.971,1.5-1.971,2.785C61.029,36.667,62.362,38,64,38
			c1.639,0,2.971-1.333,2.971-2.971c0-1.286-0.825-2.373-1.971-2.785V29h8.996C74.283,29.002,81,29.139,81,37v2h-6.215
			c-0.412-1.146-1.499-1.971-2.785-1.971c-1.638,0-2.971,1.333-2.971,2.971S70.362,42.97,72,42.97c1.286,0,2.373-0.825,2.785-1.97
			H82c0.204,0,5,0.057,5,5V54z M68.971,49.971c0,0.535-0.436,0.971-0.971,0.971s-0.971-0.436-0.971-0.971S67.465,49,68,49
			S68.971,49.436,68.971,49.971z M67,76c0,0.551-0.449,1-1,1s-1-0.449-1-1s0.449-1,1-1S67,75.449,67,76z M56,64c0,0.551-0.449,1-1,1
			s-1-0.449-1-1s0.449-1,1-1S56,63.449,56,64z M58.029,48c0-0.535,0.436-0.971,0.971-0.971s0.971,0.436,0.971,0.971
			S59.535,48.971,59,48.971S58.029,48.535,58.029,48z M55.971,40c0,0.535-0.436,0.971-0.971,0.971S54.029,40.535,54.029,40
			s0.436-0.971,0.971-0.971S55.971,39.464,55.971,40z M64.971,35.029C64.971,35.564,64.535,36,64,36s-0.971-0.436-0.971-0.971
			s0.436-0.971,0.971-0.971S64.971,34.494,64.971,35.029z M72.971,40c0,0.535-0.436,0.971-0.971,0.971S71.029,40.535,71.029,40
			s0.436-0.971,0.971-0.971S72.971,39.464,72.971,40z"></path>
    </g>
  </g>
</svg>
