<svg xmlns="http://www.w3.org/2000/svg" viewBox="0 0 48 48" id="ux">
  <g>
    <path d="M4,20C4,12.46,4,8.69,6.34,6.34S12.46,4,20,4h8c7.54,0,11.31,0,13.66,2.34S44,12.46,44,20v8c0,7.54,0,11.31-2.34,13.66S35.54,44,28,44H20c-7.54,0-11.31,0-13.66-2.34S4,35.54,4,28Z"></path>
    <path fill="#fff" d="M31.5,14.25h-15a2.25,2.25,0,0,0-2.25,2.25v2.75h19.5V16.5A2.25,2.25,0,0,0,31.5,14.25Zm-13,3.5h-1a.75.75,0,0,1,0-1.5h1a.75.75,0,0,1,0,1.5Zm3,0h-1a.75.75,0,0,1,0-1.5h1a.75.75,0,0,1,0,1.5ZM14.25,31.5a2.25,2.25,0,0,0,2.25,2.25h15a2.25,2.25,0,0,0,2.25-2.25V20.75H14.25Zm10.67-7a.75.75,0,0,1,1.16-1L28,25.83l1.92-2.31a.75.75,0,1,1,1.16,1L29,27l2.1,2.52a.76.76,0,0,1-.1,1.06.78.78,0,0,1-.48.17.76.76,0,0,1-.58-.27L28,28.17l-1.92,2.31a.76.76,0,0,1-.58.27.78.78,0,0,1-.48-.17.76.76,0,0,1-.1-1.06L27,27ZM16.75,24a.75.75,0,0,1,1.5,0v3.51a1.75,1.75,0,0,0,3.5,0V24a.75.75,0,0,1,1.5,0v3.51a3.25,3.25,0,0,1-6.5,0Z"></path>
  </g>
</svg>
