<svg xmlns="http://www.w3.org/2000/svg" viewBox="0 0 48 48" id="video-camera">
  <path fill="#1761b2" d="M33,26l12.368-4.123c1.295-.432,2.632.532,2.632,1.897v16.45c0,1.365-1.337,2.329-2.632,1.897l-12.368-4.123v-12Z"></path>
  <path fill="#154e9e" d="M46.707,38.643l-13.707-2.726v2.082l12.368,4.122c1.295.432,2.632-.532,2.632-1.897v-1.943c-.337.303-.804.458-1.293.361Z"></path>
  <rect width="36" height="24" y="21" fill="#0d3b8d" rx="4" ry="4"></rect>
  <path fill="#00286f" d="M33 42H3c-1.202 0-2.267-.541-3-1.38v.38c0 2.209 1.791 4 4 4h28c2.209 0 4-1.791 4-4v-.38c-.733.839-1.798 1.38-3 1.38zM32 39h-6c-.553 0-1-.448-1-1s.447-1 1-1h6c.553 0 1 .448 1 1s-.447 1-1 1z"></path>
  <circle cx="22" cy="38" r="1" fill="#ff3b65"></circle>
  <circle cx="26" cy="12" r="8" fill="#0d3b8d"></circle>
  <circle cx="26" cy="12" r="5" fill="#00286f"></circle>
  <path fill="#154e9e" d="M26,3c-4.971,0-9,4.029-9,9s4.029,9,9,9,9-4.029,9-9S30.971,3,26,3ZM19.245,10.455c0-1.105.895-2,2-2s2,.895,2,2-.895,2-2,2-2-.895-2-2ZM23.061,18.045c-1.105,0-2-.895-2-2s.895-2,2-2,2,.895,2,2-.895,2-2,2ZM24,7c0-1.105.895-2,2-2s2,.895,2,2-.895,2-2,2-2-.895-2-2ZM28.939,18.045c-1.105,0-2-.895-2-2s.895-2,2-2,2,.895,2,2-.895,2-2,2ZM30.755,12.455c-1.105,0-2-.895-2-2s.895-2,2-2,2,.895,2,2-.895,2-2,2Z"></path>
  <circle cx="26" cy="12" r="1" fill="#0d3b8d"></circle>
  <circle cx="9" cy="13" r="7" fill="#0d3b8d"></circle>
  <circle cx="9" cy="13" r="4" fill="#00286f"></circle>
  <path fill="#154e9e" d="M9,5C4.582,5,1,8.582,1,13s3.582,8,8,8,8-3.582,8-8-3.582-8-8-8ZM3.208,11.687c0-.966.784-1.75,1.75-1.75s1.75.784,1.75,1.75-.784,1.75-1.75,1.75-1.75-.784-1.75-1.75ZM6.502,18.188c-.966,0-1.75-.784-1.75-1.75s.784-1.75,1.75-1.75,1.75.784,1.75,1.75-.784,1.75-1.75,1.75ZM7.25,8.75c0-.966.784-1.75,1.75-1.75s1.75.784,1.75,1.75-.784,1.75-1.75,1.75-1.75-.784-1.75-1.75ZM11.498,18.188c-.966,0-1.75-.784-1.75-1.75s.784-1.75,1.75-1.75,1.75.784,1.75,1.75-.784,1.75-1.75,1.75ZM13.042,13.437c-.966,0-1.75-.784-1.75-1.75s.784-1.75,1.75-1.75,1.75.784,1.75,1.75-.784,1.75-1.75,1.75Z"></path>
  <circle cx="9" cy="13" r="1" fill="#0d3b8d"></circle>
</svg>
